<svg width="18" height="30" viewBox="0 0 18 30" fill="none" xmlns="http://www.w3.org/2000/svg">
<path d="M11.0138 29.9414H6.20415C5.40078 29.9414 4.74728 29.2886 4.74728 28.4862V17.65H1.94124C1.13788 17.65 0.484375 16.997 0.484375 16.1948V11.5514C0.484375 10.749 1.13788 10.0962 1.94124 10.0962H4.74728V7.771C4.74728 5.46547 5.47205 3.50395 6.84299 2.09885C8.22011 0.687332 10.1447 -0.0585938 12.4085 -0.0585938L16.0766 -0.0526429C16.8786 -0.0512695 17.531 0.601502 17.531 1.40259V5.71381C17.531 6.51627 16.8777 7.16904 16.0745 7.16904L13.6049 7.16995C12.8517 7.16995 12.6599 7.32079 12.6189 7.36702C12.5513 7.4437 12.4709 7.66045 12.4709 8.25897V10.096H15.8889C16.1463 10.096 16.3956 10.1594 16.6098 10.2789C17.072 10.5368 17.3593 11.0246 17.3593 11.5517L17.3575 16.195C17.3575 16.997 16.704 17.6498 15.9006 17.6498H12.4709V28.4862C12.4709 29.2886 11.8171 29.9414 11.0138 29.9414ZM6.50798 28.1827H10.7099V16.8626C10.7099 16.3268 11.1464 15.891 11.6826 15.891H15.5968L15.5984 11.8549H11.6824C11.1462 11.8549 10.7099 11.4191 10.7099 10.8833V8.25897C10.7099 7.57187 10.7798 6.79047 11.2991 6.20316C11.9264 5.49317 12.9152 5.41123 13.6044 5.41123L15.7702 5.41031V1.70563L12.4072 1.70013C8.7689 1.70013 6.50798 4.02649 6.50798 7.771V10.8833C6.50798 11.4189 6.0717 11.8549 5.53552 11.8549H2.24508V15.891H5.53552C6.0717 15.891 6.50798 16.3268 6.50798 16.8626V28.1827ZM16.0732 1.70609H16.0734H16.0732Z" fill="#3B5998"/>
</svg>
