<svg width="490" height="86" viewBox="0 0 490 86" fill="none" xmlns="http://www.w3.org/2000/svg">
<path fill-rule="evenodd" clip-rule="evenodd" d="M34.466 0.0693359C37.765 0.0693359 40.5182 0.929336 42.7054 2.64528C44.8886 4.36122 46.0772 6.57207 46.2591 9.29C46.4734 12.4014 45.4263 15.0382 43.0895 17.2085C40.7567 19.3504 37.8054 20.4375 34.2315 20.4375C30.9405 20.4375 28.155 19.5573 25.8829 17.7967C23.6148 16.0361 22.3736 13.8091 22.1917 11.0871C21.9734 7.93915 23.0205 5.30235 25.3654 3.21726C27.6981 1.10783 30.7344 0.0693359 34.466 0.0693359V0.0693359ZM6.954 68.3055L16.5599 37.8769C17.1179 36.1204 17.3928 34.8709 17.3443 34.161C17.2755 33.1104 16.6893 32.6033 15.6341 32.6033C14.4293 32.6033 12.7839 33.6053 10.7341 35.589C8.69245 37.5929 6.50523 40.3108 4.17652 43.7508C3.55391 44.6676 2.87875 45.1179 2.11868 45.1179C0.780483 45.1179 0.0851031 44.5216 0.00424505 43.3127C-0.0523556 42.4771 0.45705 41.1506 1.53246 39.3291C2.61192 37.528 3.93799 35.7715 5.53898 34.0921C8.7167 30.6967 12.3513 28.064 16.5033 26.1979C20.6311 24.3238 24.8438 23.3786 29.1495 23.3786C36.2853 23.3786 40.025 25.8734 40.3605 30.863C40.5182 33.155 40.1018 35.8932 39.0951 39.1466L29.5983 69.1655C29.0849 70.8814 28.8504 72.2079 28.9151 73.1734C28.9878 74.2565 29.5983 74.7879 30.7141 74.7879C32.1292 74.7879 33.9889 73.6399 36.2327 71.3723C38.4765 69.1006 40.6476 66.1352 42.7418 62.5005C43.2997 61.4985 44.0355 61.0036 44.9573 61.0036C46.1257 61.0036 46.7402 61.535 46.813 62.6181C46.8938 63.8229 46.0974 65.7498 44.4479 68.4069C42.8065 71.064 40.8174 73.5182 38.5169 75.8061C31.7855 82.5604 24.3264 85.9314 16.1233 85.9314C12.9375 85.9314 10.4066 85.1769 8.56307 83.68C6.69121 82.1872 5.67644 80.0818 5.49451 77.3639C5.33684 75.0556 5.8139 72.0254 6.954 68.3055Z" fill="#FF8201"/>
<path d="M89.0496 77.806C85.035 79.6639 79.2496 80.5401 72.7527 80.5401C58.6995 80.5401 47.4805 72.8812 47.4805 57.7866C47.4805 38.4244 63.6602 24.3115 86.3368 24.3115C91.0589 24.3115 94.9563 24.9687 97.9076 25.9504L93.1855 40.0633C91.2934 39.4061 89.1668 39.0816 86.2155 39.0816C75.235 39.0816 68.5036 46.846 68.5036 55.8151C68.5036 62.7073 73.6987 65.6605 78.6593 65.6605C83.147 65.6605 86.3368 64.7883 89.2881 63.693L89.0496 77.806Z" fill="#FEFEFE"/>
<path d="M152.353 46.4078C152.353 67.3034 136.998 80.5401 116.686 80.5401C101.804 80.5401 91.1797 72.1145 91.1797 58.2247C91.1797 39.2966 105.585 24.3115 126.959 24.3115C142.549 24.3115 152.353 33.7188 152.353 46.4078ZM112.082 57.8962C112.082 63.1454 114.677 66.4272 119.52 66.4272C127.788 66.4272 131.568 54.2858 131.568 46.6269C131.568 42.1444 129.559 38.4244 124.243 38.4244C115.623 38.4244 112.082 51.3326 112.082 57.8962Z" fill="#FEFEFE"/>
<path d="M149.523 79.3353L156.724 43.7832C158.26 36.672 159.206 30.437 160.031 25.5163H177.747L176.918 33.7188H177.157C182.704 26.9361 189.556 24.3115 196.878 24.3115C207.507 24.3115 211.873 30.437 211.873 38.968C211.873 41.3777 211.4 45.6452 210.931 48.1603L204.551 79.3353H184.357L190.264 50.1278C190.616 48.2698 190.854 46.2983 190.854 44.4404C190.854 41.3777 189.908 39.1871 186.484 39.1871C181.644 39.1871 176.684 45.0976 174.319 56.3628L169.714 79.3353H149.523Z" fill="#FEFEFE"/>
<path d="M213.414 63.1454C216.955 64.6788 223.687 67.0844 229.711 66.9748C233.725 66.9748 235.379 65.555 235.379 63.8026C235.379 61.8311 233.608 60.3017 228.53 58.2247C221.916 55.2715 215.54 50.7849 215.54 43.6737C215.54 31.7513 226.877 24.3115 242.939 24.3115C250.378 24.3115 255.929 25.6259 258.997 27.1552L254.393 40.0633C251.793 39.0816 247.544 37.7673 242.11 37.7673C238.33 37.7673 235.852 38.8585 235.852 41.0491C235.852 42.5784 237.978 44.2213 242.466 46.0793C248.724 48.8134 256.398 52.8619 256.398 60.9589C256.398 73.7575 244.471 80.6496 227.823 80.5401C220.028 80.321 212.468 78.5686 208.688 76.0535L213.414 63.1454Z" fill="#FEFEFE"/>
<path d="M318.521 46.4078C318.521 67.3034 303.166 80.5401 282.854 80.5401C267.976 80.5401 257.348 72.1145 257.348 58.2247C257.348 39.2966 271.753 24.3115 293.127 24.3115C308.717 24.3115 318.521 33.7188 318.521 46.4078ZM278.249 57.8962C278.249 63.1454 280.849 66.4272 285.688 66.4272C293.956 66.4272 297.736 54.2858 297.736 46.6269C297.736 42.1444 295.727 38.4244 290.411 38.4244C281.791 38.4244 278.249 51.3326 278.249 57.8962Z" fill="#FEFEFE"/>
<path d="M315.691 79.3353L322.067 48.3794C323.721 39.8443 324.428 29.9989 325.018 25.5163H342.379C342.144 29.1267 341.906 32.6235 341.554 36.2339H341.906C346.159 29.2322 352.652 24.3115 360.685 24.3115C361.865 24.3115 362.929 24.3115 364.109 24.4211L360.091 42.4729C359.383 42.4729 358.441 42.4729 357.495 42.4729C345.568 42.4729 341.554 51.1135 339.545 60.9589L335.882 79.3353H315.691Z" fill="#FEFEFE"/>
<path d="M398.948 77.806C394.933 79.6639 389.148 80.5401 382.651 80.5401C368.598 80.5401 357.379 72.8812 357.379 57.7866C357.379 38.4244 373.559 24.3115 396.231 24.3115C400.957 24.3115 404.851 24.9687 407.806 25.9504L403.084 40.0633C401.192 39.4061 399.065 39.0816 396.114 39.0816C385.133 39.0816 378.398 46.846 378.398 55.8151C378.398 62.7073 383.597 65.6605 388.554 65.6605C393.045 65.6605 396.231 64.7883 399.187 63.693L398.948 77.806Z" fill="#FEFEFE"/>
<path d="M400.25 79.3352L411.235 25.5162H431.429L420.444 79.3352H400.25ZM423.278 20.0439C417.962 20.0439 413.951 16.7621 413.951 11.4033C413.951 5.27783 419.264 1.33887 425.166 1.33887C430.839 1.33887 434.849 4.62066 434.849 9.97943C434.849 16.4335 429.537 20.0439 423.396 20.0439H423.278Z" fill="#FEFEFE"/>
<path d="M490.001 46.4078C490.001 67.3034 474.65 80.5401 454.335 80.5401C439.457 80.5401 428.828 72.1145 428.828 58.2247C428.828 39.2966 443.237 24.3115 464.612 24.3115C480.197 24.3115 490.001 33.7188 490.001 46.4078ZM449.73 57.8962C449.73 63.1454 452.33 66.4272 457.173 66.4272C465.437 66.4272 469.217 54.2858 469.217 46.6269C469.217 42.1444 467.211 38.4244 461.895 38.4244C453.276 38.4244 449.73 51.3326 449.73 57.8962Z" fill="#FEFEFE"/>
</svg>
