<svg width="134" height="35" viewBox="0 0 134 35" fill="none" xmlns="http://www.w3.org/2000/svg">
<g clip-path="url(#clip0_150_113)">
<path fill-rule="evenodd" clip-rule="evenodd" d="M91.2072 28.8652C90.1693 28.8652 89.2643 28.6254 88.5644 27.9182C87.0937 26.4322 87.6499 23.631 88.2216 21.8907C88.3318 21.5552 88.4529 21.2173 88.5955 20.9133C89.166 19.7023 89.7869 18.7237 90.8309 17.9147L91.6363 17.4279C91.9611 17.2898 92.25 17.1844 92.6095 17.1118C95.0354 16.6152 96.9699 17.8651 96.9699 20.4422C96.9699 22.449 96.1669 25.5554 94.7454 27.0704C94.5812 27.246 94.5237 27.3829 94.3259 27.55C93.8213 27.9775 93.3491 28.319 92.7174 28.5831C92.3339 28.7429 91.7526 28.8652 91.2072 28.8652ZM45.7251 11.5118H42.4243C42.1857 11.5118 42.1965 11.9805 42.157 12.1452C42.0899 12.4237 42.0347 12.6357 41.9664 12.913C41.8454 13.3974 41.7363 13.9012 41.608 14.4171C41.4762 14.9452 40.9141 17.1299 40.9141 17.503H44.2713C44.2329 17.9632 42.4159 25.2696 42.2445 25.9708C41.9125 27.3393 41.8094 28.6775 41.8094 30.109C41.8094 31.5562 42.8018 32.8448 43.9129 33.523L44.9413 34.0656C45.9289 34.5222 47.0579 34.6166 48.1426 34.7886L49.6408 34.8564C50.2245 34.8564 50.6357 34.8104 51.2098 34.8031C52.0763 34.791 55.7392 34.2242 56.3516 33.8936C56.5086 33.8088 56.4547 33.827 56.5015 33.5921C56.6213 32.9817 57.3057 29.9576 57.3057 29.4865C57.525 29.5459 57.4387 29.5313 57.5478 29.7505C57.7576 30.1744 58.0812 30.6382 58.4096 30.9713C58.7332 31.2983 58.7967 31.4254 59.1934 31.7621C59.2929 31.8469 59.3469 31.9317 59.4451 32.0164C59.5326 32.0903 59.6321 32.1581 59.734 32.2332C63.0265 34.699 67.0465 35.0332 71.124 34.745C72.8475 34.6227 74.9175 34.154 76.502 33.6211C76.8448 33.5049 77.1444 33.3583 77.5016 33.2748C77.5016 32.7213 78.0889 30.4566 78.2327 29.7166C78.2663 29.5422 78.325 29.3933 78.3406 29.2043L78.3921 29.2649C78.7769 29.8619 78.5959 29.7469 79.3474 30.7872L80.6682 32.1097C81.7086 32.8957 82.7753 33.5448 84.0242 33.9748C85.1964 34.378 86.4741 34.6554 87.7422 34.7971L88.9707 34.8564C89.2847 34.8552 89.3339 34.9061 89.5832 34.9158C90.0782 34.9351 90.3742 34.854 90.8153 34.8564C93.0183 34.8685 95.389 34.349 97.4254 33.6211C98.9296 33.0834 100.395 32.3071 101.654 31.337C102.142 30.9604 102.62 30.591 103.054 30.1514C104.115 29.076 104.996 27.8903 105.676 26.5279C105.715 26.4516 105.692 26.4843 105.734 26.4152C105.82 26.2784 105.741 26.3995 105.808 26.322C105.775 26.741 104.055 33.9457 103.962 34.3478C106.834 34.3478 109.706 34.3478 112.578 34.3478C113.906 34.3478 113.594 34.5609 113.853 33.4879C113.998 32.8848 114.144 32.3216 114.269 31.704L115.107 28.1422C115.521 26.4213 115.85 24.6289 116.402 22.9504L116.867 21.7805C117.235 21.0066 117.54 20.4434 118.016 19.7192C118.12 19.5594 118.156 19.546 118.261 19.4031C118.442 19.1585 118.595 19.0265 118.802 18.817C119.634 17.9765 120.564 17.3903 121.864 17.3903C122.452 17.3903 122.969 17.5768 123.277 17.8832C123.826 18.4282 123.823 19.1876 123.823 19.9905C123.823 21.2658 123.463 22.4756 123.162 23.6758C122.65 25.7177 122.261 27.7692 121.753 29.8256C121.605 30.4203 120.754 33.9299 120.746 34.3478H130.423C130.465 33.8403 130.778 32.8194 130.893 32.2793C130.973 31.9075 131.079 31.5877 131.147 31.2353C131.219 30.8647 131.304 30.5632 131.398 30.1877C131.579 29.4599 131.712 28.8035 131.889 28.0853C132.397 26.0338 133.544 21.4256 133.786 19.6005L133.947 17.8421C134.001 17.1094 133.993 16.4663 133.85 15.7372C133.571 14.3057 132.804 13.0171 131.622 12.2227C129.492 10.7924 126 10.7282 123.554 11.3531C122.196 11.6995 121.183 12.1113 119.943 12.7919L117.578 14.6424C117.31 14.841 117.445 14.9876 117.109 15.0154C117.232 14.485 117.256 13.86 117.346 13.2763C117.421 12.7883 117.557 12.0301 117.557 11.5118H108.998C108.998 11.9974 108.67 13.4204 108.573 13.9085C108.488 14.3324 108.433 14.6775 108.349 15.0953L107.602 18.5808C107.473 19.2493 107.095 20.286 107.095 20.8952H107.039C107.039 19.7701 107.019 19.4274 106.82 18.4028C106.748 18.0334 106.633 17.6979 106.503 17.3673C106.357 16.9955 106.249 16.7279 106.055 16.4069C105.296 15.1535 104.65 14.3796 103.469 13.4798C99.3431 10.3395 92.4921 10.5235 87.8572 12.0834C85.4002 12.9118 83.8696 13.8661 82.0741 15.3969C81.6534 15.7554 81.2099 16.1684 80.8684 16.6092C80.794 16.7061 80.7257 16.746 80.6478 16.8393L79.828 17.9317C79.363 18.6232 78.9195 19.3571 78.6127 20.1528C77.8144 22.2249 77.5567 23.4384 77.5567 25.869C77.5567 26.5472 77.7808 27.1637 77.7808 27.7341L75.1284 28.2209C73.7788 28.4535 72.3405 28.4692 70.9562 28.4692C69.6498 28.4692 68.1755 27.8867 67.3845 26.8209L67.0728 26.3438C66.4915 25.3931 66.4987 23.7763 66.8223 22.7106C66.9757 22.2092 67.1256 21.7211 67.3869 21.3021C67.6865 20.8177 67.9897 20.3417 68.3673 19.919L69.1763 19.2094C69.5347 18.9235 69.9014 18.6559 70.3209 18.4452C70.804 18.2017 71.1552 18.0491 71.7041 17.8639C72.6558 17.5417 73.8543 17.3334 75.0961 17.3334C76.0729 17.3334 77.7665 17.4812 78.3957 17.7863C78.4892 17.5914 78.6091 17.2753 78.6834 17.0585L80.7461 11.6813C80.3374 11.6462 79.9898 11.5227 79.5847 11.4415L77.7808 11.1715C74.9618 10.9777 71.975 10.9838 69.2207 11.6801C68.9534 11.7479 68.6933 11.8036 68.4164 11.8848L65.4811 12.8754C64.4444 13.2848 63.1415 13.9872 62.251 14.6424C61.1915 15.4235 59.9593 16.4057 59.1743 17.469L58.3233 18.645C57.6425 19.6756 57.1115 20.86 56.8011 22.0808C56.4164 23.5971 56.2833 25.3144 56.5278 26.8803C56.5674 27.1298 56.7124 27.8298 56.8023 28.0175C55.4275 28.3408 52.8854 28.8168 51.99 27.3393C51.3212 26.2324 52.3316 23.1357 52.6516 21.8447C52.8362 21.0938 53.0124 20.4422 53.1994 19.6853C53.3492 19.081 53.5338 18.0249 53.7807 17.503H58.3125C58.3233 17.0258 59.1719 13.7959 59.3421 13.0038C59.3984 12.741 59.4559 12.5436 59.5206 12.2796C59.5698 12.0846 59.6525 11.6365 59.7112 11.5118H55.1794C55.1998 11.2611 55.3005 10.9898 55.352 10.7234L55.7164 9.11386C55.7823 8.82441 55.8398 8.56282 55.907 8.28912C56.0544 7.69206 56.6237 5.47216 56.6345 5.01074L53.1323 5.82458C52.5198 5.98202 51.9733 6.08496 51.3524 6.23029L47.8514 7.04534C47.7291 7.07562 47.0531 7.21489 47.0028 7.26213C46.9549 7.30694 46.7643 7.98271 46.7247 8.1123C46.6408 8.38116 46.5701 8.64033 46.4862 8.94552C46.31 9.58617 45.7659 11.0128 45.7251 11.5118Z" fill="#00629B"/>
<path fill-rule="evenodd" clip-rule="evenodd" d="M3.26526 18.9165C3.26526 19.8055 3.29282 20.4243 3.74948 21.2539C3.88492 21.501 4.01077 21.6899 4.16898 21.9031L5.2369 23.0281C6.05672 23.8565 7.65322 24.588 8.72833 25.0967C9.40672 25.4176 10.3644 25.6949 11.0404 26.0389C11.7152 26.3828 12.831 26.8043 12.831 27.7913C12.831 28.9503 10.9888 29.092 9.92211 29.092C8.76549 29.092 7.02397 28.8413 5.87214 28.5494C5.24649 28.3896 4.63522 28.2588 4.05391 28.0674C3.77105 27.9742 2.45982 27.5127 2.25726 27.5091C2.20332 27.7441 2.06429 27.9899 1.98518 28.1946C1.89529 28.4271 1.79461 28.6487 1.69873 28.8655C1.59924 29.0847 1.51774 29.3233 1.41826 29.5437L0.434236 31.8847C0.299996 32.2299 0.101034 32.5871 0.0195312 32.9359C0.562483 33.3017 1.28282 33.556 1.9708 33.7909C2.67436 34.0295 3.46781 34.1906 4.26726 34.3529C5.51497 34.606 8.09429 34.8567 9.41871 34.8567C12.9581 34.8567 18.1862 34.1119 20.901 31.3664C21.0173 31.2489 21.0928 31.1726 21.209 31.0563L22.0253 29.9591C23.0944 27.9681 23.4132 25.483 21.9354 23.7354C21.4236 23.1299 21.5998 23.3576 21.1515 22.9446C20.0428 21.9236 18.384 21.1074 16.9781 20.5491L16.0588 20.1773C15.3504 19.8866 12.9988 19.0377 12.9988 18.1814C12.9988 17.68 13.2421 17.4778 13.5909 17.2537C13.839 17.0939 14.3256 16.9425 14.6325 16.8928C15.1227 16.8153 16.1103 16.7221 16.5454 16.8032C16.7683 16.8444 17.0188 16.8238 17.2514 16.8238C17.8051 16.8238 19.1942 17.043 19.7252 17.1508L21.426 17.5807C21.6381 17.6522 21.7604 17.7236 22.0061 17.7297C22.0648 17.4729 22.1643 17.2768 22.2626 17.0285L23.9082 12.9242C23.9897 12.7219 24.1395 12.3973 24.1875 12.1903L21.7028 11.4781C19.4507 11.0191 17.7895 11.001 15.5146 11.001L13.1534 11.2165C12.9185 11.2541 12.7879 11.2614 12.5566 11.2916C10.9948 11.4963 9.04116 12.1285 7.60887 12.8491L6.80103 13.3323C6.02556 13.83 5.30282 14.4041 4.72991 15.1392C3.88492 16.2243 3.26526 17.4209 3.26526 18.9165Z" fill="#00629B"/>
<path fill-rule="evenodd" clip-rule="evenodd" d="M22.8438 17.6726C22.8438 17.9875 22.9348 18.094 23.1074 18.2539C23.4562 18.5761 23.9824 18.4586 24.3096 18.1934C24.4534 18.0783 24.5529 17.8748 24.6668 17.7065L25.3703 16.7219C25.5022 16.5439 25.6017 16.4252 25.7371 16.2447C25.8042 16.1563 25.8366 16.1018 25.9073 16.0195C26.28 15.5835 26.9249 14.7818 27.33 14.462C27.6272 14.2259 28.2097 13.5767 28.8066 13.4096C30.481 12.9385 29.6624 14.9937 29.4802 15.6162L27.5086 21.9332C27.4163 22.2105 27.3695 22.3776 27.2844 22.6683C27.2113 22.919 27.143 23.0982 27.0603 23.3465L25.7455 27.5586C25.6688 27.7899 25.6005 28.0333 25.5214 28.2925C25.0527 29.8318 24.6764 32.0844 25.7299 33.5243C26.3699 34.3987 27.5925 35.0273 28.8857 35.0273C30.8945 35.0273 32.4671 34.865 34.2194 33.9712C34.8702 33.6406 36.1131 32.9697 36.7028 32.4683L38.7979 30.5717C38.9226 30.4107 38.9321 30.3852 39.0808 30.2363L40.0037 29.133C43.4016 24.6254 41.0308 24.4752 40.3381 25.1752C40.1679 25.3484 38.9669 27.5816 37.6832 28.8787C37.4915 29.0724 37.3416 29.2238 37.1511 29.4164C36.9473 29.6235 36.8299 29.7155 36.6057 29.8826C36.3648 30.0619 36.2569 30.1467 35.9537 30.298C35.4743 30.5378 34.7515 30.6456 34.5777 29.9529C34.4099 29.2795 35.1351 27.2655 35.3688 26.5413L36.3744 23.3186C36.5494 22.7894 36.7148 22.2444 36.879 21.737L38.6553 16.0691C39.1263 14.6437 39.5182 12.7229 38.8243 11.3048C38.6181 10.8821 38.364 10.6387 38.014 10.371C37.4963 9.97501 36.2845 9.58262 35.376 9.58868L34.5981 9.53418C34.2517 9.56203 34.4807 9.58868 33.8071 9.58868C32.5689 9.58868 30.662 10.2112 29.6504 10.6447C28.6532 11.0735 27.0567 12.0508 26.2417 12.7968L24.7315 14.324C24.65 14.4051 24.6164 14.4318 24.5445 14.5299C23.986 15.2904 22.8438 16.6904 22.8438 17.6726Z" fill="#FF8200"/>
<path fill-rule="evenodd" clip-rule="evenodd" d="M31.7969 4.16319C31.7969 6.21596 33.0638 7.48395 34.6878 8.08101C35.8924 8.52426 37.4925 8.49641 38.6863 8.07132C39.3263 7.84364 40.2708 7.22478 40.6699 6.68464C41.8313 5.11388 41.9512 3.35904 40.7706 1.76648C40.4446 1.32686 40.0934 1.07859 39.6511 0.804884C38.9667 0.38222 38.0918 0.150905 37.2024 0.0927734H36.2867C35.6838 0.132739 35.1025 0.250213 34.6003 0.43914L33.8848 0.790351C33.741 0.873915 33.6726 0.919936 33.542 1.00834C32.5292 1.68776 31.7969 2.8407 31.7969 4.16319Z" fill="#FF8200"/>
</g>
<defs>
<clipPath id="clip0_150_113">
<rect width="134" height="35" fill="white"/>
</clipPath>
</defs>
</svg>
